<?xml version="1.0" encoding="UTF-8"?><svg width="800px" height="600px" viewBox="0 0 800 600" version="1.1" xmlns="http://www.w3.org/2000/svg"><defs><linearGradient x1="0%" y1="0%" x2="100%" y2="100%" id="workflowGradient"><stop stop-color="#007AFF" offset="0%"></stop><stop stop-color="#5856D6" offset="100%"></stop></linearGradient><linearGradient x1="0%" y1="0%" x2="100%" y2="100%" id="gridGradient"><stop stop-color="#F2F2F7" offset="0%"></stop><stop stop-color="#E5E5EA" offset="100%"></stop></linearGradient><filter id="shadow" x="-20%" y="-20%" width="140%" height="140%"><feGaussianBlur in="SourceAlpha" stdDeviation="10" result="blur"/><feOffset in="blur" dx="0" dy="10" result="offsetBlur"/><feFlood flood-color="#000000" flood-opacity="0.15" result="offsetColor"/><feComposite in="offsetColor" in2="offsetBlur" operator="in" result="coloredShadow"/><feMerge><feMergeNode in="coloredShadow"/><feMergeNode in="SourceGraphic"/></feMerge></filter></defs><!-- Background Grid --><rect fill="url(#gridGradient)" x="0" y="0" width="800" height="600"></rect><g stroke="#C6C6C8" stroke-width="1" opacity="0.3"><g id="vertical-lines"><line x1="100" y1="0" x2="100" y2="600"></line><line x1="200" y1="0" x2="200" y2="600"></line><line x1="300" y1="0" x2="300" y2="600"></line><line x1="400" y1="0" x2="400" y2="600"></line><line x1="500" y1="0" x2="500" y2="600"></line><line x1="600" y1="0" x2="600" y2="600"></line><line x1="700" y1="0" x2="700" y2="600"></line></g><g id="horizontal-lines"><line x1="0" y1="100" x2="800" y2="100"></line><line x1="0" y1="200" x2="800" y2="200"></line><line x1="0" y1="300" x2="800" y2="300"></line><line x1="0" y1="400" x2="800" y2="400"></line><line x1="0" y1="500" x2="800" y2="500"></line></g></g><!-- Node:API Request --><g transform="translate(150,150)" filter="url(#shadow)"><rect fill="#FFFFFF" x="0" y="0" width="180" height="120" rx="10"></rect><rect fill="url(#workflowGradient)" x="0" y="0" width="180" height="40" rx="10 10 0 0"></rect><text font-family="Arial" font-size="16" font-weight="bold" fill="#FFFFFF" x="60" y="25"> HTTP Node </text><g transform="translate(20,60)"><text font-family="Arial" font-size="14" fill="#333333"><tspan x="0" y="0">GET /api/users</tspan><tspan x="0" y="25">Authorization:Token</tspan></text></g><circle fill="#28CD41" cx="170" cy="110" r="6"></circle></g><!-- Node:Transform --><g transform="translate(450,150)" filter="url(#shadow)"><rect fill="#FFFFFF" x="0" y="0" width="180" height="120" rx="10"></rect><rect fill="url(#workflowGradient)" x="0" y="0" width="180" height="40" rx="10 10 0 0"></rect><text font-family="Arial" font-size="16" font-weight="bold" fill="#FFFFFF" x="40" y="25"> Function Node </text><g transform="translate(20,60)"><text font-family="Arial" font-size="14" fill="#333333"><tspan x="0" y="0">return{</tspan><tspan x="0" y="25"> name:data.name,</tspan><tspan x="0" y="50">}</tspan></text></g><circle fill="#28CD41" cx="170" cy="110" r="6"></circle></g><!-- Connector Line --><g><path d="M330,260 C380,260 400,260 450,260" stroke="url(#workflowGradient)" stroke-width="3" fill="none" stroke-linecap="round"></path><circle fill="url(#workflowGradient)" cx="450" cy="260" r="5"></circle></g><!-- Controls --><g transform="translate(650,50)"><rect fill="#FFFFFF" x="0" y="0" width="120" height="150" rx="10" filter="url(#shadow)"></rect><text font-family="Arial" font-size="14" font-weight="bold" fill="#333333" x="30" y="30"> Controls </text><g transform="translate(20,50)"><rect fill="#F2F2F7" x="0" y="0" width="80" height="30" rx="5"></rect><text font-family="Arial" font-size="12" fill="#333333" x="18" y="20"> Add Node </text></g><g transform="translate(20,90)"><rect fill="#F2F2F7" x="0" y="0" width="80" height="30" rx="5"></rect><text font-family="Arial" font-size="12" fill="#333333" x="25" y="20"> Run </text></g></g><!-- Minimap --><g transform="translate(650,450)"><rect fill="#FFFFFF" x="0" y="0" width="120" height="100" rx="10" filter="url(#shadow)"></rect><text font-family="Arial" font-size="12" font-weight="bold" fill="#333333" x="35" y="20"> Minimap </text><rect fill="#F2F2F7" x="10" y="30" width="100" height="60" rx="5"></rect><rect fill="url(#workflowGradient)" opacity="0.5" x="20" y="40" width="20" height="15" rx="2"></rect><rect fill="url(#workflowGradient)" opacity="0.5" x="60" y="40" width="20" height="15" rx="2"></rect><path d="M40,50 C45,50 50,50 60,50" stroke="url(#workflowGradient)" stroke-width="1.5" opacity="0.5"></path></g></svg>