<svg width="44" height="29" viewBox="0 0 44 29" fill="none" xmlns="http://www.w3.org/2000/svg">
  <path id="move" d="M9.98831 6.5C14.8175 5.74744 12 13.4999 17.9883 13.5" stroke="url(#paint0_linear_496_61)" />
  <path id="move" d="M9.99529 23.7293C17.0071 23.7295 10.9884 13.5002 18 13.5" stroke="url(#paint1_linear_496_61)" />
  <path id="move" d="M26 13.5C33.0118 13.5002 26.4883 5.50045 33.5 5.5002" stroke="url(#paint2_linear_496_61)" />
  <path id="move" d="M26 13.5C33.0001 13.5 25.9882 24.0007 32.9998 24.0004" stroke="url(#paint3_linear_496_61)" />
  <path
    d="M1.03752 3.31669L1.13132 8.73367C1.15204 9.93036 3.10905 10.8669 5.50243 10.8254C7.8958 10.784 9.81921 9.78028 9.79849 8.58359L9.70469 3.16661M1.03752 3.31669C1.05824 4.51338 3.01525 5.44989 5.40862 5.40845C7.802 5.367 9.72541 4.3633 9.70469 3.16661M1.03752 3.31669C1.0168 2.12001 2.94021 1.11631 5.33358 1.07486C7.72696 1.03342 9.68397 1.96993 9.70469 3.16661M9.75159 5.8751C9.77231 7.07179 7.8489 8.07549 5.45553 8.11694C3.06215 8.15838 1.10514 7.22187 1.08442 6.02518"
    stroke="#01C4FF" stroke-width="1.08356" />
  <path
    d="M10.2123 23.5765C10.2451 26.1039 8.22286 28.1795 5.6954 28.2124M10.2123 23.5765C10.1794 21.049 8.10384 19.0268 5.57637 19.0596M10.2123 23.5765L1.05951 23.6955M5.6954 28.2124C3.16794 28.2452 1.09238 26.223 1.05951 23.6955M5.6954 28.2124C6.53789 28.2014 7.19421 26.1436 7.16135 23.6162C7.12848 21.0887 6.41886 19.0487 5.57637 19.0596M5.6954 28.2124C4.85291 28.2233 4.1433 26.1833 4.11043 23.6558C4.07756 21.1284 4.73389 19.0706 5.57637 19.0596M1.05951 23.6955C1.02665 21.1681 3.04891 19.0925 5.57637 19.0596"
    stroke="#01C4FF" stroke-width="1.01706" stroke-linecap="round" stroke-linejoin="round" />
  <path
    d="M23.66 6.44C23.83 6.42 23.995 6.425 24.155 6.455C24.615 6.515 24.935 6.725 25.115 7.085C25.195 7.245 25.235 7.415 25.235 7.595C25.235 7.805 25.195 7.99 25.115 8.15C25.065 8.24 25 8.33 24.92 8.42C24.83 8.5 24.74 8.565 24.65 8.615C24.25 8.805 23.92 8.78 23.66 8.54C23.42 8.32 23.395 8.01 23.585 7.61C23.675 7.44 23.79 7.305 23.93 7.205C23.97 7.195 23.99 7.18 23.99 7.16L23.855 7.13C23.765 7.13 23.695 7.145 23.645 7.175C23.585 7.195 23.53 7.24 23.48 7.31C23.42 7.37 23.38 7.445 23.36 7.535C23.29 7.825 23.16 8.485 22.97 9.515C22.84 10.165 22.775 10.495 22.775 10.505C22.775 10.525 23.06 10.535 23.63 10.535C24.24 10.535 24.57 10.57 24.62 10.64L24.635 10.685L24.575 10.985C24.525 11.175 24.485 11.285 24.455 11.315L24.41 11.36L23.51 11.375H22.625L22.31 12.995C21.94 14.995 21.705 16.19 21.605 16.58C21.285 17.97 20.855 18.94 20.315 19.49C20.145 19.67 19.96 19.815 19.76 19.925C19.57 20.015 19.395 20.065 19.235 20.075C18.955 20.085 18.69 20.025 18.44 19.895C18.37 19.865 18.275 19.8 18.155 19.7C17.945 19.48 17.84 19.215 17.84 18.905C17.84 18.695 17.88 18.51 17.96 18.35C18.01 18.26 18.075 18.17 18.155 18.08C18.245 18 18.335 17.935 18.425 17.885C18.825 17.695 19.155 17.72 19.415 17.96C19.655 18.18 19.68 18.49 19.49 18.89C19.39 19.07 19.27 19.205 19.13 19.295C19.1 19.315 19.08 19.33 19.07 19.34C19.07 19.36 19.135 19.37 19.265 19.37L19.355 19.355H19.37C19.51 19.285 19.63 19.135 19.73 18.905C19.81 18.705 20.03 17.69 20.39 15.86L21.23 11.39C21.23 11.38 20.98 11.375 20.48 11.375H19.73L19.67 11.33C19.63 11.28 19.635 11.145 19.685 10.925C19.735 10.705 19.78 10.585 19.82 10.565C19.85 10.545 20.12 10.535 20.63 10.535C21.14 10.535 21.395 10.53 21.395 10.52L21.68 8.99C21.87 8.14 22.13 7.53 22.46 7.16C22.79 6.76 23.19 6.52 23.66 6.44Z"
    fill="#53B4FF" />
  <path
    d="M35.7778 21.5L37.4444 23L35.7778 24.5M38.5556 24.5H40.2222M34.1111 27H41.8889C42.5025 27 43 26.5523 43 26V20C43 19.4477 42.5025 19 41.8889 19H34.1111C33.4975 19 33 19.4477 33 20V26C33 26.5523 33.4975 27 34.1111 27Z"
    stroke="#1091F6" stroke-width="0.888889" stroke-linecap="round" stroke-linejoin="round" />
  <rect x="34.5" y="2.5" width="9" height="7" rx="1" stroke="#1091F6" />
  <path d="M39 8L40 4M41 5L42 6L41 7M38 7L37 6L38 5" stroke="#1091F6" stroke-width="0.5" stroke-linecap="round"
    stroke-linejoin="round" />

  <defs>
    <linearGradient id="paint0_linear_496_61" x1="9.95589" y1="6.53723" x2="17.9559" y2="13.5372"
      gradientUnits="userSpaceOnUse">
      <stop stop-color="#01C4FF" />
      <stop offset="1" stop-color="#53B4FF" />
    </linearGradient>
    <linearGradient id="paint1_linear_496_61" x1="17.5514" y1="13.9826" x2="9.43708" y2="23.256"
      gradientUnits="userSpaceOnUse">
      <stop stop-color="#53B4FF" />
      <stop offset="1" stop-color="#01C4FF" />
    </linearGradient>
    <linearGradient id="paint2_linear_496_61" x1="33.8318" y1="3.24993" x2="25.3974" y2="12.8893"
      gradientUnits="userSpaceOnUse">
      <stop stop-color="#0F91F6" />
      <stop offset="1" stop-color="#53B4FF" />
    </linearGradient>
    <linearGradient id="paint3_linear_496_61" x1="33.8425" y1="27.2837" x2="25.3425" y2="13.2837"
      gradientUnits="userSpaceOnUse">
      <stop stop-color="#0F91F6" />
      <stop offset="1" stop-color="#53B4FF" />
    </linearGradient>
    <style>
      path#move {
        stroke-dasharray: 2 1;
        stroke-dashoffset: 0;
        animation: dashmove 2s linear infinite;
      }

      @keyframes dashmove {
        to {
          stroke-dashoffset: -10;
        }
      }
    </style>
  </defs>
</svg>